<svg xmlns="http://www.w3.org/2000/svg" viewBox="0 0 128 128">
  <!-- Left document -->
  <rect x="16" y="20" width="56" height="72" rx="4" fill="#4a90d9" opacity="0.85"/>
  <rect x="24" y="34" width="32" height="4" rx="2" fill="#fff" opacity="0.7"/>
  <rect x="24" y="44" width="40" height="4" rx="2" fill="#fff" opacity="0.7"/>
  <rect x="24" y="54" width="28" height="4" rx="2" fill="#fff" opacity="0.7"/>
  <rect x="24" y="64" width="36" height="4" rx="2" fill="#fff" opacity="0.7"/>
  <!-- Right document (overlapping) -->
  <rect x="56" y="36" width="56" height="72" rx="4" fill="#e9573f" opacity="0.85"/>
  <rect x="64" y="50" width="32" height="4" rx="2" fill="#fff" opacity="0.7"/>
  <rect x="64" y="60" width="40" height="4" rx="2" fill="#fff" opacity="0.7"/>
  <rect x="64" y="70" width="28" height="4" rx="2" fill="#fff" opacity="0.7"/>
  <rect x="64" y="80" width="36" height="4" rx="2" fill="#fff" opacity="0.7"/>
  <!-- Merge arrows -->
  <path d="M50 56 L78 56" stroke="#2d2d2d" stroke-width="3" stroke-linecap="round" marker-end="url(#arrow)"/>
  <path d="M78 72 L50 72" stroke="#2d2d2d" stroke-width="3" stroke-linecap="round" marker-end="url(#arrow)"/>
  <defs>
    <marker id="arrow" markerWidth="8" markerHeight="6" refX="7" refY="3" orient="auto">
      <path d="M0,0 L8,3 L0,6 Z" fill="#2d2d2d"/>
    </marker>
  </defs>
</svg>
